<svg width="63" height="44" viewBox="0 0 63 44" fill="none" xmlns="http://www.w3.org/2000/svg">
<path d="M62.5 0H0.5V7.12033H62.5V0Z" fill="#00AAB5"/>
<path d="M56.9326 10.7719H6.07031V14.0582H56.9326V10.7719Z" fill="#00AAB5"/>
<path d="M28.0663 33.5934C28.1898 33.8253 28.3369 34.0443 28.5053 34.247C28.5715 34.2136 28.647 34.2019 28.7205 34.2138C28.794 34.2256 28.8617 34.2604 28.9137 34.3129C28.9656 34.3654 28.9991 34.4329 29.0091 34.5055C29.0191 34.5781 29.0052 34.652 28.9693 34.7162C29.1963 34.9097 29.4455 35.0764 29.7119 35.2128C29.7574 35.1493 29.8236 35.1029 29.8995 35.0813C29.9754 35.0597 30.0565 35.0641 30.1295 35.0938C30.2025 35.1236 30.2631 35.1769 30.3012 35.2449C30.3393 35.313 30.3528 35.3918 30.3393 35.4684C30.5602 35.5364 30.787 35.5843 31.0168 35.6118C31.0292 35.5284 31.0724 35.4524 31.1382 35.3984C31.204 35.3444 31.2877 35.3162 31.3734 35.3191C31.459 35.3221 31.5405 35.356 31.6023 35.4143C31.6641 35.4727 31.7018 35.5515 31.7083 35.6355C32.0071 35.6197 32.3031 35.5694 32.59 35.4858V35.4785C32.5688 35.437 32.5563 35.3917 32.5533 35.3454C32.5504 35.299 32.557 35.2526 32.5729 35.2088C32.5887 35.165 32.6134 35.1249 32.6455 35.0908C32.6776 35.0567 32.7163 35.0294 32.7595 35.0105C32.8026 34.9916 32.8492 34.9814 32.8964 34.9807C32.9436 34.98 32.9905 34.9888 33.0342 35.0064C33.0779 35.0241 33.1174 35.0502 33.1505 35.0834C33.1836 35.1165 33.2096 35.1559 33.2267 35.1991C33.2323 35.211 33.236 35.2229 33.2407 35.2347C33.478 35.1166 33.7026 34.975 33.9108 34.8121C33.8891 34.7993 33.8689 34.7843 33.8504 34.7674C33.7889 34.7033 33.7547 34.6184 33.755 34.5303C33.7554 34.4421 33.7902 34.3575 33.8522 34.2939C33.9142 34.2303 33.9988 34.1926 34.0883 34.1887C34.1778 34.1847 34.2655 34.2147 34.3331 34.2726C34.3592 34.2973 34.3811 34.326 34.3981 34.3575C34.5986 34.1348 34.7718 33.8897 34.9141 33.6272C34.8629 33.6304 34.8116 33.6226 34.7637 33.6044C34.6776 33.5714 34.6083 33.5062 34.571 33.423C34.5338 33.3398 34.5316 33.2455 34.5651 33.1607C34.5986 33.076 34.6649 33.0078 34.7495 32.9712C34.8341 32.9345 34.93 32.9324 35.0162 32.9654C35.0731 32.9867 35.1231 33.0226 35.161 33.0694C35.2584 32.7929 35.3225 32.5062 35.3522 32.215C35.3078 32.2468 35.2564 32.2679 35.2022 32.2764C35.148 32.2849 35.0925 32.2808 35.0402 32.2642C34.988 32.2476 34.9404 32.2191 34.9015 32.181C34.8626 32.1429 34.8334 32.0962 34.8163 32.0449C34.7993 31.9936 34.7948 31.939 34.8032 31.8857C34.8117 31.8323 34.8329 31.7817 34.865 31.7379C34.8972 31.6941 34.9394 31.6584 34.9883 31.6338C35.0371 31.6092 35.0912 31.5962 35.1461 31.5961C35.2272 31.5957 35.3058 31.6235 35.368 31.6746C35.3556 31.3415 35.2982 31.0114 35.1972 30.6932C35.1794 30.7347 35.1533 30.7723 35.1204 30.8036C35.0876 30.835 35.0487 30.8595 35.006 30.8758C34.9524 30.8969 34.8944 30.9046 34.837 30.8981C34.7797 30.8917 34.7249 30.8713 34.6775 30.8389C34.6302 30.8064 34.5918 30.7629 34.5658 30.7122C34.5398 30.6616 34.5271 30.6053 34.5286 30.5486C34.5302 30.4919 34.5462 30.4364 34.5749 30.3872C34.6037 30.338 34.6445 30.2967 34.6936 30.2668C34.7427 30.237 34.7986 30.2196 34.8562 30.2163C34.9138 30.213 34.9713 30.2238 35.0236 30.2478C34.8667 29.9089 34.66 29.5946 34.4101 29.3148C34.4135 29.3841 34.3955 29.4528 34.3583 29.5117C34.3211 29.5707 34.2666 29.6172 34.202 29.645C34.1374 29.6728 34.0657 29.6806 33.9965 29.6675C33.9272 29.6543 33.8637 29.6208 33.8142 29.5713C33.7496 29.5064 33.7138 29.4189 33.7147 29.328C33.7156 29.2372 33.753 29.1503 33.8189 29.0866C33.8535 29.0529 33.8949 29.0267 33.9405 29.0099C33.9861 28.993 34.0348 28.9859 34.0834 28.9889C33.777 28.719 33.429 28.4987 33.0522 28.3362C33.0788 28.3982 33.0862 28.4666 33.0736 28.5327C33.0609 28.5989 33.0286 28.6599 32.9809 28.7081C32.9332 28.7563 32.872 28.7896 32.8052 28.8038C32.7383 28.8181 32.6686 28.8126 32.6049 28.7881C32.5425 28.7643 32.4885 28.7234 32.4492 28.6701C32.4098 28.6169 32.387 28.5537 32.3832 28.488C32.3795 28.4223 32.3951 28.357 32.4282 28.2998C32.4612 28.2426 32.5103 28.196 32.5696 28.1655C32.2701 28.0807 31.9613 28.0319 31.6498 28.0204C31.6812 28.0644 31.7016 28.1151 31.7094 28.1683C31.7172 28.2215 31.7121 28.2757 31.6946 28.3267C31.6771 28.3776 31.6476 28.4237 31.6086 28.4614C31.5696 28.499 31.5221 28.5271 31.47 28.5433C31.4179 28.5595 31.3626 28.5635 31.3087 28.5548C31.2547 28.5461 31.2036 28.5251 31.1595 28.4933C31.1154 28.4616 31.0795 28.4201 31.0547 28.3722C31.0299 28.3243 31.0169 28.2713 31.0168 28.2176C31.0168 28.1554 31.0341 28.0945 31.0669 28.0414C30.7208 28.0793 30.3814 28.1631 30.0581 28.2906C30.0929 28.3217 30.1207 28.3597 30.1397 28.402C30.1584 28.443 30.1686 28.4873 30.1699 28.5322C30.1711 28.5772 30.1634 28.6219 30.147 28.664C30.1307 28.706 30.1061 28.7444 30.0747 28.777C30.0433 28.8097 30.0056 28.8359 29.9638 28.8543C29.9221 28.8726 29.8771 28.8827 29.8314 28.8839C29.7857 28.8852 29.7402 28.8775 29.6975 28.8615C29.6548 28.8454 29.6157 28.8212 29.5825 28.7903C29.5493 28.7594 29.5226 28.7224 29.504 28.6813C29.4887 28.6487 29.479 28.6138 29.4752 28.5781C29.2416 28.7199 29.0238 28.8854 28.8255 29.072C28.8448 29.0839 28.8628 29.0976 28.8793 29.1131C28.9409 29.1771 28.975 29.262 28.9747 29.3501C28.9744 29.4383 28.9396 29.5229 28.8776 29.5865C28.8155 29.6501 28.731 29.6878 28.6415 29.6918C28.5519 29.6958 28.4643 29.6657 28.3967 29.6079C28.3878 29.5995 28.3795 29.5907 28.3716 29.5814C28.2113 29.7966 28.0747 30.0279 27.9642 30.2715C28.0514 30.3012 28.1231 30.3637 28.1635 30.4454C28.2039 30.527 28.2096 30.6211 28.1795 30.7069C28.1493 30.7928 28.0858 30.8633 28.0027 30.903C27.9197 30.9427 27.824 30.9484 27.7368 30.9187C27.6817 31.1416 27.6469 31.3689 27.6328 31.5979C27.7142 31.6091 27.7889 31.6483 27.8437 31.7084C27.8986 31.7686 27.93 31.8459 27.9324 31.9267C27.9349 32.0075 27.9082 32.0865 27.8571 32.1498C27.806 32.2131 27.7338 32.2566 27.6532 32.2725C27.6811 32.5114 27.7323 32.7471 27.8064 32.9763C27.8842 32.9631 27.9644 32.9763 28.0336 33.0138C28.1028 33.0513 28.157 33.1108 28.1873 33.1826C28.2175 33.2544 28.222 33.3342 28.2 33.4089C28.178 33.4836 28.1308 33.5486 28.0663 33.5934ZM28.9164 33.2748C28.8524 33.3002 28.7821 33.3063 28.7145 33.2923C28.6469 33.2783 28.585 33.2449 28.5367 33.1964C28.4884 33.1478 28.4559 33.0862 28.4432 33.0195C28.4305 32.9527 28.4382 32.8837 28.4654 32.8212C28.4926 32.7588 28.538 32.7057 28.5959 32.6687C28.6538 32.6316 28.7216 32.6123 28.7907 32.6132C28.8597 32.614 28.927 32.635 28.9839 32.6735C29.0408 32.712 29.0849 32.7662 29.1104 32.8293C29.1435 32.9133 29.1416 33.0067 29.1053 33.0893C29.0691 33.1719 29.0012 33.2373 28.9164 33.2712V33.2748ZM29.6283 34.1019C29.5792 34.1492 29.5168 34.1811 29.4492 34.1937C29.3816 34.2062 29.3117 34.1987 29.2484 34.1722C29.1851 34.1456 29.1313 34.1013 29.0936 34.0446C29.0559 33.988 29.0362 33.9217 29.0368 33.854C29.0375 33.7864 29.0585 33.7204 29.0972 33.6645C29.136 33.6086 29.1907 33.5652 29.2545 33.5398C29.3183 33.5145 29.3883 33.5083 29.4556 33.5221C29.523 33.5358 29.5847 33.5689 29.633 33.6171C29.6967 33.6818 29.7319 33.7686 29.7311 33.8586C29.7302 33.9487 29.6933 34.0348 29.6283 34.0982V34.1019ZM30.6873 34.614C30.6625 34.6771 30.6191 34.7316 30.5628 34.7705C30.5064 34.8095 30.4396 34.8311 30.3708 34.8326C30.302 34.8342 30.2342 34.8156 30.1761 34.7793C30.118 34.743 30.0721 34.6905 30.0443 34.6286C30.0165 34.5666 30.0081 34.4979 30.0199 34.4312C30.0318 34.3646 30.0636 34.3028 30.1111 34.2539C30.1587 34.2049 30.22 34.1709 30.2872 34.1562C30.3544 34.1415 30.4245 34.1468 30.4887 34.1713C30.5737 34.2043 30.6421 34.2688 30.6792 34.3509C30.7163 34.433 30.7193 34.5262 30.6873 34.6103V34.614ZM31.3658 35.0175C31.2967 35.0177 31.2291 34.9977 31.1716 34.96C31.114 34.9224 31.0692 34.8688 31.0426 34.806C31.0161 34.7433 31.0091 34.6742 31.0226 34.6075C31.036 34.5408 31.0693 34.4796 31.1181 34.4315C31.167 34.3835 31.2292 34.3508 31.297 34.3376C31.3648 34.3243 31.4351 34.3312 31.4989 34.3573C31.5627 34.3834 31.6172 34.4275 31.6554 34.4841C31.6937 34.5407 31.714 34.6072 31.7139 34.6752C31.7129 34.7653 31.6758 34.8514 31.6106 34.9149C31.5454 34.9783 31.4575 35.0138 31.3658 35.0138V35.0175ZM32.642 34.75C32.5791 34.7776 32.5093 34.7862 32.4414 34.7748C32.3735 34.7634 32.3106 34.7325 32.2605 34.686C32.2104 34.6395 32.1755 34.5795 32.16 34.5135C32.1446 34.4475 32.1493 34.3784 32.1737 34.3151C32.198 34.2517 32.2409 34.1969 32.2969 34.1574C32.3528 34.118 32.4194 34.0957 32.4883 34.0934C32.5571 34.0911 32.6251 34.1089 32.6836 34.1445C32.7422 34.1801 32.7888 34.232 32.8174 34.2936C32.855 34.3765 32.8577 34.4707 32.8248 34.5556C32.7919 34.6405 32.7262 34.7091 32.642 34.7464V34.75ZM33.6193 34.0727C33.5716 34.1215 33.5102 34.1552 33.443 34.1697C33.3757 34.1842 33.3056 34.1788 33.2415 34.154C33.1774 34.1293 33.1222 34.0865 33.0828 34.0309C33.0435 33.9753 33.0218 33.9095 33.0205 33.8418C33.0192 33.7741 33.0384 33.7075 33.0756 33.6505C33.1127 33.5935 33.1662 33.5486 33.2294 33.5216C33.2925 33.4945 33.3623 33.4864 33.4301 33.4984C33.4979 33.5104 33.5605 33.5419 33.6101 33.5889C33.6756 33.6516 33.7133 33.7372 33.7151 33.8271C33.7168 33.917 33.6824 34.0039 33.6193 34.069V34.0727ZM34.2793 33.0557C34.2542 33.1188 34.2108 33.1731 34.1544 33.2119C34.098 33.2507 34.0312 33.2721 33.9625 33.2736C33.8937 33.275 33.826 33.2564 33.768 33.22C33.7099 33.1837 33.6642 33.1312 33.6365 33.0693C33.6087 33.0074 33.6003 32.9387 33.6122 32.8721C33.6241 32.8054 33.6558 32.7438 33.7034 32.6948C33.7509 32.6459 33.8121 32.6119 33.8792 32.5972C33.9464 32.5825 34.0165 32.5877 34.0806 32.6121C34.166 32.6449 34.2347 32.7096 34.2719 32.7919C34.309 32.8743 34.3117 32.9678 34.2793 33.0521V33.0557ZM34.4918 31.943C34.492 32.0109 34.4717 32.0773 34.4334 32.1339C34.3952 32.1905 34.3408 32.2346 34.277 32.2607C34.2133 32.2868 34.1431 32.2938 34.0753 32.2806C34.0075 32.2675 33.9453 32.2349 33.8964 32.1869C33.8475 32.1389 33.8141 32.0778 33.8006 32.0112C33.7871 31.9446 33.7939 31.8755 33.8203 31.8127C33.8467 31.75 33.8914 31.6963 33.9488 31.6585C34.0062 31.6208 34.0738 31.6006 34.1428 31.6006C34.2346 31.6006 34.3226 31.6362 34.388 31.6995C34.4533 31.7629 34.4906 31.8491 34.4918 31.9393V31.943ZM33.8207 30.6084C33.8849 30.5832 33.9552 30.5773 34.0227 30.5914C34.0902 30.6055 34.152 30.639 34.2002 30.6876C34.2484 30.7363 34.2808 30.7979 34.2933 30.8647C34.3059 30.9315 34.298 31.0004 34.2707 31.0628C34.2434 31.1252 34.1979 31.1782 34.14 31.2151C34.0821 31.2521 34.0143 31.2713 33.9452 31.2703C33.8762 31.2694 33.809 31.2483 33.7521 31.2097C33.6953 31.1712 33.6513 31.1169 33.6258 31.0538C33.5917 30.9693 33.5931 30.875 33.6296 30.7914C33.6661 30.7079 33.7349 30.6421 33.8207 30.6084ZM33.1079 29.7813C33.1566 29.7335 33.2187 29.701 33.2862 29.6879C33.3536 29.6747 33.4236 29.6815 33.4871 29.7075C33.5507 29.7334 33.605 29.7773 33.6432 29.8336C33.6814 29.8898 33.7018 29.956 33.7018 30.0237C33.7018 30.0913 33.6814 30.1575 33.6432 30.2138C33.605 30.27 33.5507 30.3139 33.4871 30.3398C33.4236 30.3658 33.3536 30.3726 33.2862 30.3595C33.2187 30.3463 33.1566 30.3138 33.1079 30.266C33.0421 30.2023 33.0046 30.1155 33.0037 30.0246C33.0029 29.9337 33.0387 29.8462 33.1033 29.7813H33.1079ZM32.0489 29.2692C32.0738 29.206 32.1171 29.1516 32.1735 29.1126C32.2298 29.0737 32.2966 29.0521 32.3655 29.0506C32.4343 29.049 32.5021 29.0676 32.5602 29.1039C32.6183 29.1402 32.6641 29.1926 32.6919 29.2546C32.7197 29.3166 32.7282 29.3852 32.7163 29.4519C32.7044 29.5186 32.6727 29.5804 32.6251 29.6293C32.5775 29.6783 32.5163 29.7122 32.4491 29.727C32.3819 29.7417 32.3117 29.7364 32.2475 29.7119C32.2045 29.6961 32.1651 29.6721 32.1316 29.6412C32.0981 29.6104 32.0711 29.5733 32.0522 29.5322C32.0333 29.491 32.0229 29.4466 32.0215 29.4015C32.0202 29.3563 32.0279 29.3114 32.0443 29.2692H32.0489ZM31.3704 28.8657C31.4392 28.8664 31.5062 28.8871 31.563 28.9251C31.6199 28.9632 31.664 29.0168 31.6899 29.0795C31.7159 29.1421 31.7224 29.2108 31.7088 29.2771C31.6951 29.3434 31.6618 29.4042 31.6132 29.4519C31.5645 29.4997 31.5026 29.5322 31.4352 29.5455C31.3677 29.5587 31.2979 29.5521 31.2343 29.5265C31.1707 29.5008 31.1162 29.4572 31.0777 29.4012C31.0391 29.3452 31.0183 29.2793 31.0178 29.2117C31.0173 29.1664 31.0259 29.1215 31.0432 29.0795C31.0604 29.0376 31.086 28.9994 31.1184 28.9672C31.1507 28.9351 31.1893 28.9095 31.2318 28.8921C31.2742 28.8747 31.3198 28.8657 31.3658 28.8657H31.3704ZM30.0952 29.1332C30.1581 29.1058 30.2279 29.0973 30.2958 29.1089C30.3636 29.1204 30.4265 29.1514 30.4764 29.198C30.5264 29.2446 30.5612 29.3047 30.5765 29.3707C30.5919 29.4367 30.587 29.5057 30.5625 29.569C30.5381 29.6323 30.4951 29.6871 30.4391 29.7264C30.3831 29.7658 30.3165 29.7879 30.2477 29.7901C30.1788 29.7923 30.1109 29.7745 30.0524 29.7388C29.9939 29.7031 29.9474 29.6512 29.9188 29.5896C29.8995 29.5486 29.8886 29.5042 29.8868 29.459C29.885 29.4138 29.8923 29.3687 29.9082 29.3263C29.9242 29.2839 29.9485 29.245 29.9798 29.2118C30.0111 29.1787 30.0487 29.152 30.0905 29.1332H30.0952ZM31.3704 29.8835C31.7811 29.8834 32.1826 30.003 32.5242 30.2272C32.8658 30.4515 33.132 30.7704 33.2893 31.1435C33.4466 31.5166 33.4879 31.9273 33.4079 32.3234C33.3278 32.7196 33.1302 33.0836 32.8398 33.3693C32.5495 33.6549 32.1796 33.8495 31.7768 33.9284C31.374 34.0073 30.9565 33.9669 30.577 33.8123C30.1976 33.6578 29.8733 33.3961 29.6451 33.0602C29.4169 32.7244 29.2951 32.3295 29.2951 31.9256C29.2954 31.385 29.5134 30.8666 29.9015 30.4838C30.2897 30.1011 30.8162 29.8852 31.3658 29.8835H31.3704ZM29.1169 29.8096C29.1648 29.7606 29.2263 29.7267 29.2938 29.7121C29.3612 29.6976 29.4315 29.703 29.4958 29.7278C29.5601 29.7526 29.6155 29.7955 29.655 29.8513C29.6944 29.907 29.7162 29.973 29.7175 30.0409C29.7188 30.1088 29.6996 30.1756 29.6623 30.2328C29.625 30.2899 29.5713 30.3349 29.508 30.362C29.4447 30.3892 29.3746 30.3972 29.3066 30.3852C29.2387 30.3731 29.1759 30.3415 29.1262 30.2943C29.0929 30.2634 29.066 30.2264 29.0473 30.1853C29.0285 30.1442 29.0182 30.0998 29.0169 30.0548C29.0156 30.0098 29.0234 29.9649 29.0398 29.9229C29.0561 29.8808 29.0808 29.8423 29.1123 29.8096H29.1169ZM28.457 30.8274C28.482 30.7644 28.5254 30.7101 28.5818 30.6713C28.6382 30.6325 28.705 30.6111 28.7738 30.6096C28.8426 30.6082 28.9103 30.6268 28.9683 30.6631C29.0263 30.6995 29.0721 30.752 29.0998 30.8139C29.1275 30.8758 29.136 30.9444 29.1241 31.0111C29.1122 31.0777 29.0804 31.1394 29.0329 31.1883C28.9854 31.2373 28.9242 31.2712 28.857 31.286C28.7899 31.3007 28.7198 31.2955 28.6556 31.2711C28.6126 31.2552 28.5732 31.2311 28.5396 31.2001C28.5061 31.1692 28.4791 31.132 28.4602 31.0908C28.4414 31.0496 28.4309 31.0051 28.4296 30.9599C28.4282 30.9147 28.436 30.8697 28.4524 30.8274H28.457ZM28.5934 31.597C28.6625 31.5968 28.7301 31.6168 28.7877 31.6544C28.8452 31.6921 28.8901 31.7457 28.9166 31.8084C28.9431 31.8712 28.9501 31.9403 28.9367 32.007C28.9233 32.0736 28.89 32.1349 28.8411 32.1829C28.7923 32.231 28.73 32.2637 28.6622 32.2769C28.5944 32.2901 28.5242 32.2832 28.4604 32.2572C28.3966 32.2311 28.3421 32.1869 28.3038 32.1303C28.2655 32.0738 28.2452 32.0073 28.2454 31.9393C28.2454 31.8493 28.2814 31.7629 28.3457 31.6988C28.41 31.6348 28.4973 31.5982 28.5888 31.597H28.5934Z" fill="#00AAB5"/>
<path d="M31.3651 32.5891C31.499 32.5893 31.63 32.5504 31.7414 32.4774C31.8528 32.4043 31.9397 32.3004 31.991 32.1787C32.0423 32.0571 32.0558 31.9232 32.0297 31.7941C32.0037 31.6649 31.9392 31.5462 31.8445 31.4531C31.7498 31.36 31.6292 31.2966 31.4978 31.2709C31.3665 31.2453 31.2304 31.2585 31.1067 31.309C30.983 31.3595 30.8774 31.4449 30.8031 31.5545C30.7288 31.6641 30.6893 31.7929 30.6895 31.9246C30.6897 32.1007 30.761 32.2696 30.8876 32.3942C31.0143 32.5188 31.186 32.5889 31.3651 32.5891Z" fill="#00AAB5"/>
<path d="M29.8308 44H33.1721C46.2951 44 56.9326 33.5368 56.9326 20.6307H6.07031C6.07031 33.5368 16.7087 44 29.8308 44ZM31.5014 27.4151C32.389 27.4151 33.2566 27.674 33.9946 28.159C34.7326 28.644 35.3078 29.3333 35.6474 30.1398C35.9871 30.9463 36.076 31.8337 35.9028 32.6899C35.7296 33.5461 35.3022 34.3325 34.6746 34.9498C34.047 35.5671 33.2474 35.9874 32.3769 36.1577C31.5064 36.328 30.6041 36.2406 29.7841 35.9066C28.9641 35.5725 28.2633 35.0068 27.7702 34.2809C27.2771 33.5551 27.0139 32.7018 27.0139 31.8288C27.0139 31.2492 27.1299 30.6753 27.3555 30.1398C27.581 29.6043 27.9115 29.1177 28.3283 28.7079C28.745 28.298 29.2397 27.9729 29.7841 27.7511C30.3286 27.5293 30.9121 27.4151 31.5014 27.4151Z" fill="#00AAB5"/>
</svg>
