<svg width="203" height="29" viewBox="0 0 203 29" fill="none" xmlns="http://www.w3.org/2000/svg">
<path d="M9.64 28.52C7.8 28.52 6.14667 28.2 4.68 27.56C3.24 26.8933 2.10667 25.9867 1.28 24.84C0.453335 23.6667 0.026668 22.32 1.37091e-06 20.8H3.88C4.01333 22.1067 4.54667 23.2133 5.48 24.12C6.44 25 7.82667 25.44 9.64 25.44C11.3733 25.44 12.7333 25.0133 13.72 24.16C14.7333 23.28 15.24 22.16 15.24 20.8C15.24 19.7333 14.9467 18.8667 14.36 18.2C13.7733 17.5333 13.04 17.0267 12.16 16.68C11.28 16.3333 10.0933 15.96 8.6 15.56C6.76 15.08 5.28 14.6 4.16 14.12C3.06667 13.64 2.12 12.8933 1.32 11.88C0.546668 10.84 0.160001 9.45334 0.160001 7.72001C0.160001 6.2 0.546668 4.85334 1.32 3.68C2.09333 2.50667 3.17333 1.6 4.56 0.960004C5.97333 0.320004 7.58667 4.29153e-06 9.4 4.29153e-06C12.0133 4.29153e-06 14.1467 0.653338 15.8 1.96001C17.48 3.26667 18.4267 5 18.64 7.16001H14.64C14.5067 6.09334 13.9467 5.16 12.96 4.36001C11.9733 3.53334 10.6667 3.12 9.04 3.12C7.52 3.12 6.28 3.52 5.32 4.32C4.36 5.09334 3.88 6.18667 3.88 7.6C3.88 8.61334 4.16 9.44 4.72 10.08C5.30667 10.72 6.01334 11.2133 6.84 11.56C7.69334 11.88 8.88 12.2533 10.4 12.68C12.24 13.1867 13.72 13.6933 14.84 14.2C15.96 14.68 16.92 15.44 17.72 16.48C18.52 17.4933 18.92 18.88 18.92 20.64C18.92 22 18.56 23.28 17.84 24.48C17.12 25.68 16.0533 26.6533 14.64 27.4C13.2267 28.1467 11.56 28.52 9.64 28.52ZM40.7566 22.04H28.5966L26.3566 28.24H22.5166L32.5966 0.520005H36.7966L46.8366 28.24H42.9966L40.7566 22.04ZM39.7166 19.08L34.6766 5L29.6366 19.08H39.7166ZM49.8697 14.28C49.8697 11.56 50.483 9.12 51.7097 6.96001C52.9364 4.77334 54.603 3.06667 56.7097 1.84C58.843 0.613338 61.203 4.29153e-06 63.7897 4.29153e-06C66.8297 4.29153e-06 69.483 0.733338 71.7497 2.2C74.0164 3.66667 75.6697 5.74667 76.7097 8.44H72.3497C71.5764 6.76 70.4564 5.46667 68.9897 4.56001C67.5497 3.65334 65.8164 3.2 63.7897 3.2C61.843 3.2 60.0964 3.65334 58.5497 4.56001C57.003 5.46667 55.7897 6.76 54.9097 8.44C54.0297 10.0933 53.5897 12.04 53.5897 14.28C53.5897 16.4933 54.0297 18.44 54.9097 20.12C55.7897 21.7733 57.003 23.0533 58.5497 23.96C60.0964 24.8667 61.843 25.32 63.7897 25.32C65.8164 25.32 67.5497 24.88 68.9897 24C70.4564 23.0933 71.5764 21.8 72.3497 20.12H76.7097C75.6697 22.7867 74.0164 24.8533 71.7497 26.32C69.483 27.76 66.8297 28.48 63.7897 28.48C61.203 28.48 58.843 27.88 56.7097 26.68C54.603 25.4533 52.9364 23.76 51.7097 21.6C50.483 19.44 49.8697 17 49.8697 14.28ZM96.8081 28.24L90.1681 16.84H85.7681V28.24H82.1281V0.360004H91.1281C93.2348 0.360004 95.0081 0.720005 96.4481 1.44C97.9148 2.16001 99.0081 3.13334 99.7281 4.36001C100.448 5.58667 100.808 6.98667 100.808 8.56C100.808 10.48 100.248 12.1733 99.1281 13.64C98.0348 15.1067 96.3815 16.08 94.1681 16.56L101.168 28.24H96.8081ZM85.7681 13.92H91.1281C93.1015 13.92 94.5815 13.44 95.5681 12.48C96.5548 11.4933 97.0481 10.1867 97.0481 8.56C97.0481 6.90667 96.5548 5.62667 95.5681 4.72001C94.6081 3.81334 93.1281 3.36 91.1281 3.36H85.7681V13.92ZM119.104 28.52C116.517 28.52 114.157 27.92 112.024 26.72C109.891 25.4933 108.197 23.8 106.944 21.64C105.717 19.4533 105.104 17 105.104 14.28C105.104 11.56 105.717 9.12 106.944 6.96001C108.197 4.77334 109.891 3.08 112.024 1.88C114.157 0.653337 116.517 0.0400038 119.104 0.0400038C121.717 0.0400038 124.091 0.653337 126.224 1.88C128.357 3.08 130.037 4.76 131.264 6.92C132.491 9.08 133.104 11.5333 133.104 14.28C133.104 17.0267 132.491 19.48 131.264 21.64C130.037 23.8 128.357 25.4933 126.224 26.72C124.091 27.92 121.717 28.52 119.104 28.52ZM119.104 25.36C121.051 25.36 122.797 24.9067 124.344 24C125.917 23.0933 127.144 21.8 128.024 20.12C128.931 18.44 129.384 16.4933 129.384 14.28C129.384 12.04 128.931 10.0933 128.024 8.44C127.144 6.76 125.931 5.46667 124.384 4.56001C122.837 3.65334 121.077 3.2 119.104 3.2C117.131 3.2 115.371 3.65334 113.824 4.56001C112.277 5.46667 111.051 6.76 110.144 8.44C109.264 10.0933 108.824 12.04 108.824 14.28C108.824 16.4933 109.264 18.44 110.144 20.12C111.051 21.8 112.277 23.0933 113.824 24C115.397 24.9067 117.157 25.36 119.104 25.36ZM146.749 28.52C144.909 28.52 143.256 28.2 141.789 27.56C140.349 26.8933 139.216 25.9867 138.389 24.84C137.563 23.6667 137.136 22.32 137.109 20.8H140.989C141.123 22.1067 141.656 23.2133 142.589 24.12C143.549 25 144.936 25.44 146.749 25.44C148.483 25.44 149.843 25.0133 150.829 24.16C151.843 23.28 152.349 22.16 152.349 20.8C152.349 19.7333 152.056 18.8667 151.469 18.2C150.883 17.5333 150.149 17.0267 149.269 16.68C148.389 16.3333 147.203 15.96 145.709 15.56C143.869 15.08 142.389 14.6 141.269 14.12C140.176 13.64 139.229 12.8933 138.429 11.88C137.656 10.84 137.269 9.45334 137.269 7.72001C137.269 6.2 137.656 4.85334 138.429 3.68C139.203 2.50667 140.283 1.6 141.669 0.960004C143.083 0.320004 144.696 4.29153e-06 146.509 4.29153e-06C149.123 4.29153e-06 151.256 0.653338 152.909 1.96001C154.589 3.26667 155.536 5 155.749 7.16001H151.749C151.616 6.09334 151.056 5.16 150.069 4.36001C149.083 3.53334 147.776 3.12 146.149 3.12C144.629 3.12 143.389 3.52 142.429 4.32C141.469 5.09334 140.989 6.18667 140.989 7.6C140.989 8.61334 141.269 9.44 141.829 10.08C142.416 10.72 143.123 11.2133 143.949 11.56C144.803 11.88 145.989 12.2533 147.509 12.68C149.349 13.1867 150.829 13.6933 151.949 14.2C153.069 14.68 154.029 15.44 154.829 16.48C155.629 17.4933 156.029 18.88 156.029 20.64C156.029 22 155.669 23.28 154.949 24.48C154.229 25.68 153.163 26.6533 151.749 27.4C150.336 28.1467 148.669 28.52 146.749 28.52ZM180.906 0.360004L171.826 17.72V28.24H168.186V17.72L159.066 0.360004H163.106L169.986 14.48L176.866 0.360004H180.906ZM193.585 28.52C191.745 28.52 190.092 28.2 188.625 27.56C187.185 26.8933 186.052 25.9867 185.225 24.84C184.399 23.6667 183.972 22.32 183.945 20.8H187.825C187.959 22.1067 188.492 23.2133 189.425 24.12C190.385 25 191.772 25.44 193.585 25.44C195.319 25.44 196.679 25.0133 197.665 24.16C198.679 23.28 199.185 22.16 199.185 20.8C199.185 19.7333 198.892 18.8667 198.305 18.2C197.719 17.5333 196.985 17.0267 196.105 16.68C195.225 16.3333 194.039 15.96 192.545 15.56C190.705 15.08 189.225 14.6 188.105 14.12C187.012 13.64 186.065 12.8933 185.265 11.88C184.492 10.84 184.105 9.45334 184.105 7.72001C184.105 6.2 184.492 4.85334 185.265 3.68C186.039 2.50667 187.119 1.6 188.505 0.960004C189.919 0.320004 191.532 4.29153e-06 193.345 4.29153e-06C195.959 4.29153e-06 198.092 0.653338 199.745 1.96001C201.425 3.26667 202.372 5 202.585 7.16001H198.585C198.452 6.09334 197.892 5.16 196.905 4.36001C195.919 3.53334 194.612 3.12 192.985 3.12C191.465 3.12 190.225 3.52 189.265 4.32C188.305 5.09334 187.825 6.18667 187.825 7.6C187.825 8.61334 188.105 9.44 188.665 10.08C189.252 10.72 189.959 11.2133 190.785 11.56C191.639 11.88 192.825 12.2533 194.345 12.68C196.185 13.1867 197.665 13.6933 198.785 14.2C199.905 14.68 200.865 15.44 201.665 16.48C202.465 17.4933 202.865 18.88 202.865 20.64C202.865 22 202.505 23.28 201.785 24.48C201.065 25.68 199.999 26.6533 198.585 27.4C197.172 28.1467 195.505 28.52 193.585 28.52Z" fill="#F9F9F9"/>
</svg>
