<svg width="57" height="56" viewBox="0 0 57 56" fill="none" xmlns="http://www.w3.org/2000/svg">
<path fill-rule="evenodd" clip-rule="evenodd" d="M56.1279 1.11443C56.1279 1.11443 56.1279 1.11443 56.1279 1.02156C55.7558 0.464345 55.1047 0.092869 54.3605 0.092869H17.0581C15.8488 0.092869 14.8256 1.11443 14.8256 2.32172V11.4229V15.5091V46.9917C14.8256 47.4561 14.9186 47.8275 15.1977 48.199C15.1977 48.199 15.1977 48.199 15.1977 48.2919C15.5698 48.8491 16.2209 49.2206 16.9651 49.2206H19.6628C19.1977 52.1924 16.686 54.5141 13.5233 54.5141C10.3605 54.5141 7.84884 52.1924 7.38372 49.1277H10.1744C11.3837 49.1277 12.407 48.1061 12.407 46.8988V2.22886C12.407 1.76451 12.314 1.39303 12.0349 1.02156C12.0349 1.02156 12.0349 1.02156 12.0349 0.92869C11.6628 0.371476 11.0116 0 10.2674 0H2.73256C1.52326 0 0.5 1.02156 0.5 2.22886V46.8988C0.5 47.3632 0.593023 47.7347 0.872093 48.1061C0.872093 48.1061 0.872093 48.1061 0.872093 48.199C1.24419 48.7562 1.89535 49.1277 2.63953 49.1277H5.89535C6.36047 52.9353 9.52326 56 13.5233 56C17.4302 56 20.686 53.0282 21.1512 49.2206H54.2674C55.4767 49.2206 56.5 48.199 56.5 46.9917V2.32172C56.5 1.85738 56.407 1.4859 56.1279 1.11443ZM28.8721 33.1542C28.8721 33.7114 28.407 34.0829 27.9419 34.0829H22.7326C22.1744 34.0829 21.8023 33.7114 21.8023 33.1542V30.9254C21.8023 30.3682 22.1744 29.9967 22.7326 29.9967H27.9419C28.5 29.9967 28.8721 30.461 28.8721 30.9254V33.1542ZM28.8721 25.7247C28.8721 26.2819 28.407 26.6534 27.9419 26.6534H22.7326C22.1744 26.6534 21.8023 26.1891 21.8023 25.7247V23.4959C21.8023 22.9386 22.1744 22.5672 22.7326 22.5672H27.9419C28.5 22.5672 28.8721 23.0315 28.8721 23.4959V25.7247ZM28.8721 18.2952C28.8721 18.8524 28.407 19.2239 27.9419 19.2239H22.7326C22.1744 19.2239 21.8023 18.7595 21.8023 18.2952V16.0663C21.8023 15.5091 22.1744 15.1376 22.7326 15.1376H27.9419C28.5 15.1376 28.8721 15.602 28.8721 16.0663V18.2952ZM39.1047 33.1542C39.1047 33.7114 38.7326 34.0829 38.1744 34.0829H32.9651C32.407 34.0829 32.0349 33.7114 32.0349 33.1542V30.9254C32.0349 30.3682 32.407 29.9967 32.9651 29.9967H38.1744C38.7326 29.9967 39.1047 30.461 39.1047 30.9254V33.1542ZM39.1047 25.7247C39.1047 26.2819 38.7326 26.6534 38.1744 26.6534H32.9651C32.407 26.6534 32.0349 26.1891 32.0349 25.7247V23.4959C32.0349 22.9386 32.407 22.5672 32.9651 22.5672H38.1744C38.7326 22.5672 39.1047 23.0315 39.1047 23.4959V25.7247ZM39.1047 18.2952C39.1047 18.8524 38.7326 19.2239 38.1744 19.2239H32.9651C32.407 19.2239 32.0349 18.7595 32.0349 18.2952V16.0663C32.0349 15.5091 32.407 15.1376 32.9651 15.1376H38.1744C38.7326 15.1376 39.1047 15.602 39.1047 16.0663V18.2952ZM49.3372 33.1542C49.3372 33.7114 48.8721 34.0829 48.407 34.0829H43.2907C42.7326 34.0829 42.3605 33.7114 42.3605 33.1542V30.9254C42.3605 30.3682 42.7326 29.9967 43.2907 29.9967H48.407C48.9651 29.9967 49.3372 30.461 49.3372 30.9254V33.1542ZM49.3372 25.7247C49.3372 26.2819 48.8721 26.6534 48.407 26.6534H43.2907C42.7326 26.6534 42.3605 26.1891 42.3605 25.7247V23.4959C42.3605 22.9386 42.7326 22.5672 43.2907 22.5672H48.407C48.9651 22.5672 49.3372 23.0315 49.3372 23.4959V25.7247ZM49.3372 18.2952C49.3372 18.8524 48.8721 19.2239 48.407 19.2239H43.2907C42.7326 19.2239 42.3605 18.7595 42.3605 18.2952V16.0663C42.3605 15.5091 42.7326 15.1376 43.2907 15.1376H48.407C48.9651 15.1376 49.3372 15.602 49.3372 16.0663V18.2952Z" fill="#00AAB5"/>
</svg>
