<svg width="73" height="48" viewBox="0 0 73 48" fill="none" xmlns="http://www.w3.org/2000/svg">
<path fill-rule="evenodd" clip-rule="evenodd" d="M52.9786 11.1116C52.1883 11.1116 51.4769 11.7356 51.4769 12.429V29.5558H8.00823C3.89846 29.5558 0.5 32.5374 0.5 36.143V41.4128C0.5 45.0184 3.89846 48 8.00823 48H64.9918C69.1015 48 72.5 45.0184 72.5 41.4128V36.143C72.5 32.5374 69.1015 29.5558 64.9918 29.5558H54.4802V12.429C54.4802 11.7356 53.848 11.1116 52.9786 11.1116ZM66.7305 0.36403C66.1773 -0.121343 65.2289 -0.121343 64.5966 0.36403C64.0434 0.849404 64.0434 1.68147 64.5966 2.23619C70.9984 7.85265 70.9984 17.0748 64.5966 22.6912C64.0434 23.1766 64.0434 24.0087 64.5966 24.5634C64.9127 24.8407 65.3079 24.9794 65.624 24.9794C66.0192 24.9794 66.4144 24.8407 66.6515 24.5634C74.2387 17.9068 74.2387 7.02059 66.6515 0.36403H66.7305ZM41.2816 2.23619C41.8348 1.75081 41.8348 0.918743 41.2816 0.36403C40.7283 -0.121343 39.7799 -0.121343 39.1476 0.36403C31.5604 7.02059 31.5604 17.9068 39.1476 24.5634C39.4638 24.8407 39.8589 24.9794 40.1751 24.9794C40.5703 24.9794 40.9654 24.8407 41.2025 24.5634C41.7558 24.078 41.7558 23.2459 41.2025 22.6912C34.8008 17.0748 34.8008 7.85265 41.2025 2.23619H41.2816ZM62.4627 4.10834C61.9094 3.62297 60.961 3.62297 60.3288 4.10834C59.7755 4.59372 59.7755 5.42579 60.3288 5.9805C64.4385 9.58613 64.4385 15.4106 60.3288 19.0163C59.7755 19.5016 59.7755 20.3337 60.3288 20.8884C60.6449 21.1658 61.0401 21.3044 61.3562 21.3044C61.7514 21.3044 62.1465 21.1658 62.3836 20.8884C67.6789 16.2427 67.6789 8.75406 62.3836 4.17768L62.4627 4.10834ZM45.4704 5.9805C46.0236 5.49512 46.0236 4.66306 45.4704 4.10834C44.9171 3.62297 43.9687 3.62297 43.3364 4.10834C38.0412 8.75406 38.0412 16.2427 43.3364 20.8191C43.6526 21.0964 44.0478 21.2351 44.3639 21.2351C44.7591 21.2351 45.1542 21.0964 45.3913 20.8191C45.9446 20.3337 45.9446 19.5016 45.3913 18.9469C41.2816 15.3413 41.2816 9.51679 45.3913 5.91116L45.4704 5.9805ZM58.1948 7.85265C57.6416 7.36728 56.6932 7.36728 56.0609 7.85265C55.5077 8.33803 55.5077 9.1701 56.0609 9.72481C56.9303 10.4875 57.4045 11.4583 57.4045 12.4984C57.4045 13.5385 56.9303 14.5785 56.0609 15.2719C55.5077 15.7573 55.5077 16.5894 56.0609 17.1441C56.3771 17.4215 56.7722 17.5601 57.0884 17.5601C57.4835 17.5601 57.8787 17.4215 58.1158 17.1441C59.5384 15.896 60.3288 14.2319 60.3288 12.4984C60.3288 10.7649 59.5384 9.10076 58.1158 7.85265H58.1948ZM48.3946 12.4984C48.3946 11.4583 48.8688 10.4875 49.7382 9.72481C50.2914 9.23944 50.2914 8.40737 49.7382 7.85265C49.185 7.36728 48.2366 7.36728 47.6043 7.85265C46.1817 9.10076 45.3913 10.7649 45.3913 12.4984C45.3913 14.2319 46.1817 15.896 47.6043 17.1441C47.9204 17.4215 48.3156 17.5601 48.6317 17.5601C49.0269 17.5601 49.4221 17.4215 49.6592 17.1441C50.2124 16.6587 50.2124 15.8267 49.6592 15.2719C48.7898 14.5092 48.3156 13.5385 48.3156 12.4984H48.3946ZM10.9325 40.0953C10.1422 40.0953 9.43085 39.4713 9.43085 38.7779C9.43085 38.0845 10.1422 37.4605 10.9325 37.4605C11.7228 37.4605 12.4341 38.0152 12.4341 38.7779C12.4341 39.4713 11.8019 40.0953 10.9325 40.0953ZM19.9424 40.0953C19.152 40.0953 18.4407 39.4713 18.4407 38.7779C18.4407 38.0845 19.073 37.4605 19.9424 37.4605C20.7327 37.4605 21.444 38.0152 21.444 38.7779C21.444 39.4713 20.7327 40.0953 19.9424 40.0953ZM28.9523 40.0953C28.1619 40.0953 27.4506 39.4713 27.4506 38.7779C27.4506 38.0845 28.1619 37.4605 28.9523 37.4605C29.7426 37.4605 30.4539 38.0152 30.4539 38.7779C30.4539 39.4713 29.8216 40.0953 28.9523 40.0953ZM37.9621 40.0953C37.1718 40.0953 36.4605 39.4713 36.4605 38.7779C36.4605 38.0845 37.0928 37.4605 37.9621 37.4605C38.7525 37.4605 39.4638 38.0152 39.4638 38.7779C39.4638 39.4713 38.8315 40.0953 37.9621 40.0953ZM61.9885 40.0953H46.972C46.1817 40.0953 45.4704 39.4713 45.4704 38.7779C45.4704 38.0845 46.1817 37.4605 46.972 37.4605H61.9885C62.7788 37.4605 63.4901 38.0152 63.4901 38.7779C63.4901 39.4713 62.7788 40.0953 61.9885 40.0953Z" fill="#00AAB5"/>
</svg>
